<svg width="66" height="66" viewBox="0 0 66 66" fill="none" xmlns="http://www.w3.org/2000/svg">
<path d="M27.6866 15.0201C29.8166 15.0201 31.5566 13.32 31.5566 11.23C31.5566 9.13004 29.8166 7.43002 27.6866 7.43002C25.5566 7.43002 23.8266 9.13004 23.8266 11.23C23.8266 13.32 25.5566 15.0201 27.6866 15.0201Z" fill="#0B0E1A"/>
<path d="M27.6866 22.4298C33.9466 22.4298 39.0466 17.3999 39.0466 11.2298C39.0466 5.04984 33.9466 0.0198669 27.6866 0.0198669C21.4266 0.0198669 16.3266 5.04984 16.3266 11.2298C16.3266 17.3999 21.4266 22.4298 27.6866 22.4298ZM27.6866 5.42984C30.9266 5.42984 33.5566 8.02988 33.5566 11.2298C33.5566 14.4198 30.9266 17.0199 27.6866 17.0199C24.4566 17.0199 21.8266 14.4198 21.8266 11.2298C21.8266 8.02988 24.4566 5.42984 27.6866 5.42984Z" fill="#0B0E1A"/>
<path d="M5.61563 58.1801C5.76566 58.2901 16.4456 65.9801 29.0257 65.9801C34.0757 65.9801 39.4356 64.7401 44.5356 61.2702C46.2456 62.0302 51.6256 64.0602 57.6457 62.6701C61.6457 61.7401 64.7456 58.4801 65.5556 54.3502C65.8556 52.8302 65.9956 51.3001 65.9956 49.8001C65.9956 47.3502 65.6056 44.9602 64.8357 42.7401C63.5956 39.2002 60.5356 36.6002 56.8556 35.9402C53.2856 35.3102 47.8656 35.3902 42.0356 39.2301C39.7057 37.9402 30.8257 33.7202 23.8957 39.4002C23.9356 35.7502 24.1756 28.6701 25.3656 24.2301C21.3156 23.5302 17.8957 21.0202 15.9856 17.5902L2.86563 39.9801C2.47562 40.5302 -0.744354 45.2002 0.165619 50.4201C0.695649 53.5002 2.54562 56.1201 5.61563 58.1801ZM17.3556 57.0202C17.5356 56.5002 18.1156 56.2301 18.6256 56.4102C22.8056 57.9002 27.0857 58.5102 31.3357 58.2301C31.8857 58.2002 32.3556 58.6101 32.3957 59.1701C32.4356 59.7202 32.0157 60.1902 31.4657 60.2301C30.7556 60.2702 30.0556 60.3001 29.3456 60.3001C25.5257 60.3001 21.7057 59.6302 17.9657 58.3001C17.4356 58.1101 17.1656 57.5401 17.3556 57.0202Z" fill="#0B0E1A"/>
</svg>
