<svg width="90" height="66" viewBox="0 0 90 66" fill="none" xmlns="http://www.w3.org/2000/svg">
<path fill-rule="evenodd" clip-rule="evenodd" d="M4.5144 0.545101C17.5647 3.51108 30.615 6.47706 43.6653 9.14643V65.5L4.5144 55.7123C2.43822 55.1191 0.955231 53.0429 0.955231 51.2633C0.955231 35.247 0.955231 19.2308 0.955231 3.51108C0.955231 1.43489 2.43822 0.248504 4.5144 0.545101ZM85.4856 0.545101C72.4353 3.51108 59.385 6.47706 46.3347 9.14643V65.5H46.6313L85.4856 55.7123C87.5618 55.1191 89.0447 53.0429 89.0447 51.2633C89.0447 35.247 89.0447 19.2308 89.0447 3.51108C89.0447 1.43489 87.5618 0.248504 85.4856 0.545101Z" fill="#0B0E1A"/>
</svg>
