<svg width="66" height="66" viewBox="0 0 66 66" fill="none" xmlns="http://www.w3.org/2000/svg">
<path d="M13.4848 26.348C13.4848 22.6793 10.4111 19.6056 6.7424 19.6056C3.07285 19.6056 0 22.6793 0 26.348C0 30.0184 3.07285 33.0908 6.7424 33.0908C10.4111 33.0908 13.4848 30.0184 13.4848 26.348Z" fill="#0B0E1A"/>
<path d="M65.8499 34.8028C65.8586 34.8193 65.8646 34.8288 65.8412 34.7759C65.8317 34.7681 65.8317 34.7603 65.8317 34.7603C59.1318 25.5648 54.1587 19.0756 52.1873 16.5296C51.8577 17.0687 51.4284 17.5583 50.9393 17.9876L47.3998 21.0387L47.1639 21.2413L56.5949 34.5235L43.2446 44.7707C38.549 45.1575 37.3591 46.7256 37.3591 46.7256V46.7291C35.1466 48.3258 33.7862 50.8279 33.0555 52.5859L32.9111 52.6944C26.9788 51.0109 21.6362 46.7126 18.7767 41.2668L48.7398 15.4342C50.0798 14.2755 50.2983 12.1801 49.1864 10.7907C48.0416 9.3536 45.8968 9.09514 44.4501 10.2343C44.4501 10.2343 16.3331 32.3913 16.291 32.3913C16.291 32.3913 14.9675 32.6103 13.1813 33.0149C11.2225 34.9008 8.43588 35.9017 5.7221 35.56C4.75333 36.1211 4.07033 36.8011 3.85957 37.9286H3.85133C3.71647 38.6718 3.72427 39.5903 3.81664 40.6007C4.05341 47.0725 6.76676 63.265 27.9046 65.6241C35.66 65.6327 39.2749 65.2451 44.7962 61.5035C54.4518 55.7126 62.7779 47.0682 65.934 36.0404C65.9418 36.0162 65.9505 35.9901 65.9505 35.965C66.0867 35.4169 65.9045 34.926 65.8499 34.8028Z" fill="#0B0E1A"/>
<path d="M39.2256 10.0649L42.3686 7.58791C43.1024 7.00682 43.9627 6.58531 44.8639 6.34941L41.628 1.7809C40.5629 0.283937 38.4216 -0.0764263 36.9246 0.988619C35.425 2.05497 35.0616 4.18939 36.1232 5.69112L39.2256 10.0649Z" fill="#0B0E1A"/>
</svg>
