<svg width="106" height="66" viewBox="0 0 106 66" fill="none" xmlns="http://www.w3.org/2000/svg">
<path d="M100.743 18.6473V6.85562H95.9769V18.6473H93.1829V0.5H82.5895V18.6473H78.2769V18.1147C78.2769 16.336 76.6042 14.8964 74.8275 14.8964C73.0509 14.8964 71.4615 16.336 71.4615 18.1147V18.6473H34.3679V18.1147C34.3679 16.336 32.7785 14.8964 31.0039 14.8964C29.2252 14.8964 27.5546 16.336 27.5546 18.1147V18.6473H23.269V0.5H12.6798V18.6473H9.88372V6.85562H5.11545V18.6473H0.75285V22.3546H5.11753V35.1865H9.8858V22.3546H12.6819V40.479H23.2711V22.3546H27.5567V37.2107C27.5567 39.3494 28.8882 41.3819 31.1558 41.3819H42.2298V65.5H63.5102L63.6059 41.3819H74.6819C76.9516 41.3819 78.2789 39.3494 78.2789 37.2107V22.3546H82.5916V40.479H93.185V22.3546H95.979V35.1865H100.745V22.3546H105.247V18.6473H100.743ZM52.9646 59.211C52.2781 59.211 51.7226 58.6534 51.7226 57.969C51.7226 57.2824 52.2802 56.727 52.9646 56.727C53.6491 56.727 54.2066 57.2824 54.2066 57.969C54.2046 58.6534 53.6491 59.211 52.9646 59.211ZM71.4615 33.9903L60.9055 33.9466C59.8196 37.348 56.6324 39.8154 52.8773 39.8154C49.1305 39.8154 45.9495 37.3584 44.8573 33.9695L34.3679 33.9882V22.3504H71.4615V33.9903Z" fill="#0B0E1A"/>
<path d="M52.8726 37.963C56.5034 37.963 59.4467 35.0197 59.4467 31.3889C59.4467 27.7582 56.5034 24.8149 52.8726 24.8149C49.2419 24.8149 46.2985 27.7582 46.2985 31.3889C46.2985 35.0197 49.2419 37.963 52.8726 37.963Z" fill="#0B0E1A"/>
</svg>
