<?xml version="1.0" encoding="UTF-8"?>
<svg xmlns="http://www.w3.org/2000/svg" xmlns:xlink="http://www.w3.org/1999/xlink" viewBox="0 0 290.36 290.37">
  <defs>
    <style>
      .cls-1 {
        fill: #fff;
      }

      .cls-1, .cls-2, .cls-3, .cls-4, .cls-5, .cls-6, .cls-7, .cls-8, .cls-9, .cls-10, .cls-11, .cls-12, .cls-13, .cls-14, .cls-15, .cls-16 {
        stroke-width: 0px;
      }

      .cls-1, .cls-2, .cls-3, .cls-5, .cls-6, .cls-7, .cls-9, .cls-10, .cls-12, .cls-13, .cls-14, .cls-15, .cls-16 {
        fill-rule: evenodd;
      }

      .cls-2 {
        fill: #547ea8;
      }

      .cls-3 {
        fill: url(#GradientFill_16);
      }

      .cls-4 {
        fill: url(#radial-gradient-2);
      }

      .cls-4, .cls-8 {
        mix-blend-mode: multiply;
      }

      .cls-5 {
        fill: #1d2842;
      }

      .cls-6 {
        fill: url(#GradientFill_16-5);
      }

      .cls-17 {
        isolation: isolate;
      }

      .cls-7 {
        fill: url(#GradientFill_16-2);
      }

      .cls-8 {
        fill: url(#radial-gradient);
      }

      .cls-9 {
        fill: #12182a;
      }

      .cls-10 {
        fill: url(#GradientFill_16-4);
      }

      .cls-11 {
        fill: #cbcdcf;
      }

      .cls-12 {
        fill: #293a5b;
      }

      .cls-13 {
        fill: url(#GradientFill_16-3);
      }

      .cls-14 {
        fill: #46678f;
      }

      .cls-15 {
        fill: #f6bd43;
      }

      .cls-16 {
        fill: #385077;
      }
    </style>
    <radialGradient id="radial-gradient" cx="1233.17" cy="-91.83" fx="1233.17" fy="-91.83" r="23.17" gradientTransform="translate(-979.83 -301.5) rotate(25.64)" gradientUnits="userSpaceOnUse">
      <stop offset="0" stop-color="#f15f2f"/>
      <stop offset=".1" stop-color="#f1673a"/>
      <stop offset=".29" stop-color="#f37f59"/>
      <stop offset=".53" stop-color="#f7a68b"/>
      <stop offset=".82" stop-color="#fbdbd0"/>
      <stop offset="1" stop-color="#fff"/>
    </radialGradient>
    <radialGradient id="radial-gradient-2" cx="1228.68" cy="-102.72" fx="1228.68" fy="-102.72" r="20.34" xlink:href="#radial-gradient"/>
    <linearGradient id="GradientFill_16" data-name="GradientFill 16" x1="156.59" y1="118.02" x2="104.99" y2="55.08" gradientUnits="userSpaceOnUse">
      <stop offset="0" stop-color="#e7e5e4"/>
      <stop offset="1" stop-color="#fff"/>
    </linearGradient>
    <linearGradient id="GradientFill_16-2" data-name="GradientFill 16" x1="144.99" y1="183.33" x2="104.49" y2="247" xlink:href="#GradientFill_16"/>
    <linearGradient id="GradientFill_16-3" data-name="GradientFill 16" x1="117.02" y1="185.09" x2="90.75" y2="234.81" xlink:href="#GradientFill_16"/>
    <linearGradient id="GradientFill_16-4" data-name="GradientFill 16" x1="133.87" y1="135.66" x2="169.02" y2="142.69" xlink:href="#GradientFill_16"/>
    <linearGradient id="GradientFill_16-5" data-name="GradientFill 16" x1="178.71" y1="120.79" x2="189.47" y2="115.72" xlink:href="#GradientFill_16"/>
  </defs>
  <g class="cls-17">
    <g id="Layer_2" data-name="Layer 2">
      <g id="Layer_1-2" data-name="Layer 1">
        <g>
          <path class="cls-2" d="M145.18,290.37c79.97,0,145.18-65.22,145.18-145.18S225.14,0,145.18,0,0,65.22,0,145.18s65.22,145.18,145.18,145.18Z"/>
          <path class="cls-14" d="M55.19,134.88c-2.51-2.05-4.83-3.9-6.54-5.3-12.33-10.06-26.57-21.19-40.24-33.19C28.46,40.21,82.12,0,145.18,0,171.44,0,196.06,6.97,217.31,19.16c7.38,12.04,14.27,24.22,20.37,35.84,11.1,21.16,20.13,42.18,19.22,66.58-.66,17.53-6.17,36.05-15.8,50.77-4.79,7.33-11.58,13.23-15.69,20.29-3.88,6.66-7.25,14.27-10.61,21.22-6.51,13.5-13.19,26.86-20.29,40.06-5.96,11.07-12.13,22.13-18.44,33.13-9.96,2.16-20.28,3.3-30.88,3.3-65.18,0-120.32-42.95-138.67-102.09,8.07-10.48,16.6-20.51,25.26-29.89,7.52-8.15,15.36-15.91,23.42-23.5Z"/>
          <path class="cls-16" d="M71.43,134.63c-5.73-5.22-12.77-10.84-15.94-13.43-12.83-10.47-28.28-22.47-42.8-35.46C35.4,35.2,86.18,0,145.18,0,164.16,0,182.28,3.65,198.9,10.27c10.7,16.42,20.75,33.65,29.19,49.75,10.14,19.32,18.83,38.86,17.98,61.15-.58,15.57-5.49,32.18-14.04,45.26-4.92,7.54-11.57,13.17-15.99,20.77-4.03,6.92-7.52,14.74-11.01,21.97-6.44,13.36-13.04,26.57-20.07,39.64-7.3,13.56-14.92,27.11-22.74,40.56-5.6.66-11.28,1-17.05,1-60.62,0-112.56-37.17-134.29-89.95,9.09-12.24,18.88-23.92,28.82-34.69,8.13-8.81,16.62-17.13,25.39-25.31,2.03-1.89,4.19-3.82,6.33-5.79Z"/>
          <path class="cls-12" d="M86.7,134.81c-5.83-6.97-20.27-18.64-24.38-21.99-13.05-10.64-29.5-23.38-44.64-37.13C42.32,30.59,90.18,0,145.18,0c12.8,0,25.21,1.66,37.02,4.77,13.34,19.38,26.05,40.7,36.32,60.27,9.14,17.43,17.51,35.59,16.75,55.72-.51,13.6-4.81,28.32-12.29,39.75-5.03,7.71-11.56,13.14-16.27,21.24-4.18,7.18-7.79,15.22-11.4,22.71-6.37,13.21-12.91,26.29-19.86,39.21-8.4,15.61-17.22,31.18-26.29,46.63-1.32.03-2.64.06-3.98.06-56.23,0-104.98-31.97-129.1-78.72,9.82-13.68,20.62-26.71,31.57-38.58,7.95-8.61,16.25-16.75,24.82-24.73,4.66-4.34,9.88-8.85,14.23-13.52Z"/>
          <path class="cls-5" d="M166.67,1.59c6.02,8.38,11.74,17.03,17.24,25.67,8.82,13.88,17.38,28.24,25.02,42.81,8.13,15.49,16.19,32.37,15.52,50.29-.44,11.64-4.14,24.45-10.53,34.24-1.27,1.94-2.67,3.77-4.16,5.54-4.75,5.66-8.59,9.61-12.42,16.18-4.32,7.44-8.06,15.69-11.79,23.45-6.31,13.07-12.77,26-19.64,38.79-7.42,13.79-15.22,27.43-23.11,40.96-2.06,3.53-4.14,7.06-6.22,10.6-48.38-2.83-90.38-29.33-114.61-68.09,10.31-14.81,21.89-28.91,33.61-41.61,7.76-8.41,15.88-16.36,24.24-24.16,5.08-4.73,10.71-9.6,15.37-14.72.83-.92,4.16-4.75,4.12-6.16-.02-.54-.41-1.44-.63-1.92-3.88-8.5-22.54-23.31-29.54-29.02-13-10.61-30.3-23.94-45.82-38.23C49.23,26.36,94.12,0,145.18,0c7.31,0,14.48.55,21.49,1.59Z"/>
          <path class="cls-15" d="M152.17.17c16.36,21.53,35.86,53.34,47.18,74.92,11.77,22.43,14.71,33.83,14.29,44.86-.41,11.03-4.18,21.69-8.78,28.73-4.6,7.03-10.02,10.43-16.86,22.2-6.85,11.76-15.13,31.9-31.62,62.55-9.06,16.84-20.6,36.85-31.67,55.5-39.3-5.55-73.55-26.83-96.16-57.27,11.22-16.52,23.79-31.78,35-43.91,17.78-19.26,32.12-30.66,39.66-38.93,7.53-8.27,8.27-13.42,5.33-19.85-2.94-6.44-9.56-14.16-32.54-32.91-12.81-10.45-30.7-24.33-46.32-38.83C56.21,22.45,98.07,0,145.18,0c2.35,0,4.67.06,7,.17Z"/>
          <path class="cls-9" d="M152.17.17c16.36,21.53,35.86,53.34,47.18,74.92,11.77,22.43,14.71,33.83,14.29,44.86-.41,11.03-4.18,21.69-8.78,28.73-4.6,7.03-10.02,10.43-16.86,22.2-6.85,11.76-15.13,31.9-31.62,62.55-9.06,16.84-20.6,36.85-31.67,55.5-39.3-5.55-73.55-26.83-96.16-57.27,11.22-16.52,23.79-31.78,35-43.91,17.78-19.26,32.12-30.66,39.66-38.93,7.53-8.27,8.27-13.42,5.33-19.85-2.94-6.44-9.56-14.16-32.54-32.91-12.81-10.45-30.7-24.33-46.32-38.83C56.21,22.45,98.07,0,145.18,0c2.35,0,4.67.06,7,.17Z"/>
          <g>
            <g>
              <path class="cls-11" d="M177.68,166.01c.32-1.01-.03-2.21.17-3.24h0c.98-3.22,2.13-6.66,3.12-10.01.42-2.12.74-4.24.98-6.41-.1.09-.21.17-.29.29-.34.43-.76.12-1.08-.29h0c-.12-.14-.22-.3-.3-.43,0,0,0,0,0,0-.04-.06-.07-.12-.1-.18-.03-.06-.06-.11-.07-.15-.02-.04-.04-.08-.06-.11-.63.51-1.23,1.06-1.82,1.63h0c-.22.21-.45.42-.67.63-.05.05-.1.05-.15.07,0,0,0,0,0,0-.09.03-.18.03-.27,0,0,0-.01,0-.02,0-.27-.08-.53-.36-.64-.56-.16-.3-.29-.68-.42-1.09-.34-1.04-.7-2.24-1.63-2.51,0,0-.01,0-.02,0-.15-.04-.32-.06-.5-.05-.96.06-1.96.58-2.93,1.05-.1.05-.19.09-.29.14-.06.03-.13.06-.19.09-.22.1-.43.19-.64.26,0,0,0,0,0,0-.05.02-.11.05-.16.07-.14.05-.28.09-.41.14-.04.01-.08.02-.11.04-.05.01-.09.02-.14.03-.03,0-.07.02-.1.02-.05,0-.09.01-.13.02-.03,0-.05,0-.08,0-.04,0-.08,0-.12-.01-.02,0-.04-.01-.07-.02-.04-.01-.08-.03-.11-.05-.02-.01-.03-.03-.05-.04-.03-.03-.07-.06-.1-.09-.01-.02-.02-.04-.04-.06-.03-.05-.06-.09-.09-.16-.03-.08-.06-.17-.09-.29-.07-.32-.11-.66-.77-.93-.11-.04-.22-.07-.32-.08-.02,0-.04,0-.05,0-.02,0-.04,0-.06,0-.07,0-.13,0-.2,0-.03,0-.06.01-.09.02-.07.02-.14.04-.21.06-.02,0-.05.02-.07.03-.08.04-.16.08-.24.12,0,0-.02.01-.03.02-.27.17-.52.38-.76.59,0,0,0,0,0,0-.1.08-.2.17-.3.24,0,0,0,0-.01,0h0c-.39.29-.76.06-.85-.32-.01-.05-.02-.11-.02-.17,0-.09-.01-.17-.02-.25,0-.02,0-.04-.01-.06-.01-.05-.02-.09-.04-.13,0-.02-.01-.03-.02-.05-.02-.03-.04-.07-.06-.09,0,0-.01-.02-.02-.02-.03-.03-.06-.05-.09-.06,0,0,0,0,0,0-.33-.14-.87.27-1.25.61,0,0,0,0,0,0-.06.05-.12.11-.17.15-.16.15-.43.31-.68.36,0,0,0,0,0,.01-.17.03-.32,0-.44-.14,0,0,0-.01,0-.02-.02-.03-.05-.03-.07-.06-.16-.29-.28-.59-.39-.89-.09-.24-.17-.49-.24-.74h0c-.04-.12-.07-.24-.11-.35-.62.41-1.17.93-1.77,1.37-.15.11-.55.28-.91.32-.21.66-.43,1.31-.61,1.97-.83,1.94-1.13,3.96-2.23,5.86-.41.45-.7.96-1.11,1.41-.4.44-.86.87-.87,1.48.27-.17.6-.3.96-.42-.21.45-.24.98.3,1.67.73.94,2.17,1.91,3.43,2.72,1.66,1.06,3.43,2.01,5.23,2.89,1.63.8,3.29,1.53,4.93,2.28,1.48.67,2.98,1.36,4.51,1.86,1.82.59,3.57.74,4.18-.36.2.37.4.75.59,1.13.28-.19.49-.43.59-.75Z"/>
              <path class="cls-11" d="M160.13,141.25h0c.24-.17.49-.33.75-.49,0,0,0,.01,0,.02.13-.08.25-.17.38-.24.27-.15.78-.2.9.17.04.13.09.26.13.39h0c.12.4.24.8.38,1.18.14-.1.28-.2.43-.29.28-.18.57-.33.86-.42,0,0,.02,0,.03,0,.14-.05.27-.08.4-.1.03,0,.05,0,.08,0,.09-.01.18-.01.27,0,.03,0,.06,0,.09,0,.1.01.19.04.28.09.02.01.05.02.07.04.19.11.36.29.47.57.02.04.04.06.05.1.15-.09.29-.17.44-.25,0,0,0,0,0,0,.11-.06.22-.11.32-.16.04-.02.08-.04.12-.05.09-.04.17-.07.26-.1.1-.03.2-.06.3-.08.05-.01.11-.03.16-.04.17-.03.34-.04.51-.04,0-.01,0-.02,0-.04.19,0,.39.05.59.11,0,0,0,.02,0,.03.06.02.12.04.18.06,0,0,0,.01,0,.02.16.07.31.1.47.21.09.06.19.17.28.27.06.07.11.14.17.21.04.06.07.12.11.18h0c.04.07.09.13.12.2.11-.06.25-.12.38-.17h0c.2-.08.39-.15.53-.22.16-.08.33-.17.5-.26.05-.03.11-.06.17-.09.52-.29,1.07-.62,1.63-.86h0c.43-.19.87-.32,1.3-.35h0c.07,0,.15,0,.22,0,.15,0,.29,0,.44.04.09.02.17.06.26.09.16.06.31.14.45.23.01,0,.02.02.04.02.13.09.26.2.36.32h0c.2.22.36.47.5.75.29.6.48,1.3.67,1.95.18-.2.37-.39.55-.58.42-.44.86-.85,1.34-1.22,0,0,0-.02,0-.02.11-.08.21-.17.32-.24.08-.06.16-.09.24-.11.03,0,.05,0,.08,0,.05,0,.11,0,.16,0,.03,0,.06.01.09.02.05.01.09.03.14.05.03.02.06.03.09.05.04.03.08.06.12.09.03.02.06.05.08.07.04.04.07.07.1.11.02.03.05.06.07.09.03.04.06.08.09.13.02.03.04.07.06.1.09.16.16.33.2.47,0,.01.01.02.02.04.4-.26.85-.41,1.31-.55.04-.62.08-1.23.1-1.87.25-4.11.06-8.46-.53-12.92-.74-4.53-1.86-9.28-4.06-13.79-.47-1.12-1.05-2.18-1.66-3.25-.59-1.07-1.21-2.15-1.95-3.15-1.19-1.75-2.63-3.36-4.1-5-.34-.72-.72-1.47-1.31-1.96l-.05-.03c-.08.45-.14.9-.18,1.34-.27-.18-.57-.29-.9-.28-1.41.05-2.94,1.46-4,2.34-3.26,2.58-5.49,6.33-7.09,10.21-.82,1.95-1.73,3.84-2.64,5.71-.69,1.54-1.55,3.19-2.16,4.48-.38.88-.52,1.32-.46,1.55-.2.14-.38.28-.54.4-.15.44-.12.65.1.68.34-.01.84-.09,1.43-.23.34.05.6.23.94.33.4.11.73.29,1.09.47.37.17.77.36,1.06.63,1.47.95,2.48,2.54,3.22,4.39.6,1.89.85,4.07.51,6.41-.07.76-.24,1.53-.45,2.3.1.23.23.47.31.7.39-.32.79-.63,1.2-.92Z"/>
            </g>
            <g>
              <path class="cls-8" d="M158.54,141.45c.1.23.23.47.31.7.74-.59,1.48-1.18,2.33-1.65.27-.15.78-.2.9.17.17.53.31,1.06.51,1.58,1.16-.86,2.57-1.39,3.03-.04,1.05-.66,2.18-1.14,3.37-.32.25.17.52.51.67.87.28-.16.68-.28.91-.39,1.24-.59,2.8-1.86,4.27-1.53,1.49.34,1.86,1.97,2.27,3.37.67-.76,1.37-1.49,2.21-2.07.7-.48,1.36.47,1.53,1.07,0,.01.01.02.02.04.4-.26.85-.41,1.31-.55.04-.62.08-1.23.1-1.87.25-4.11.06-8.46-.53-12.92-.74-4.53-1.86-9.28-4.06-13.79-.47-1.12-1.05-2.18-1.66-3.25-.59-1.07-1.21-2.15-1.95-3.15-1.19-1.75-2.63-3.36-4.1-5-.34-.72-.72-1.47-1.31-1.96l-.05-.03c-.44,2.38-.18,4.75-.54,6.97-.67,4.83-4.88,9.05-8.82,12.32-3.77,3.11-7.16,5.33-8.62,6.44-.15.44-.12.65.1.68.34-.01.84-.09,1.43-.23.34.05.6.23.94.33.4.11.73.29,1.09.47.37.17.77.36,1.06.63,1.47.95,2.48,2.54,3.22,4.39.6,1.89.85,4.07.51,6.41-.07.76-.24,1.53-.45,2.3Z"/>
              <path class="cls-4" d="M177.78,162.74h0c.98-3.22,2.13-6.66,3.12-10.01.42-2.12.74-4.24.98-6.41-.1.09-.21.17-.3.29-.57.74-1.41-.71-1.56-1.05-.02-.04-.04-.08-.06-.11-.87.7-1.68,1.48-2.48,2.26-.38.37-.91-.2-1.08-.5-.64-1.18-.8-3.77-2.58-3.65-1.4.09-2.88,1.15-4.2,1.6-.81.28-1.41.54-1.63-.47-.07-.32-.11-.66-.77-.93-.93-.38-1.64.49-2.33,1.02-.45.35-.87,0-.89-.49-.04-1.36-1.19-.39-1.7.1-.28.26-.92.63-1.19.15-.35-.63-.54-1.3-.74-1.99-.62.41-1.17.93-1.77,1.37-.15.11-.55.28-.91.32-.21.66-.42,1.31-.61,1.97-.83,1.94-1.13,3.96-2.23,5.86-.41.45-.7.96-1.11,1.41-.4.44-.86.87-.87,1.48.73-.47,1.82-.73,3.22-.75,3.93-.05,9.1,1.43,13.12,3.78,2.48,1.45,4.41,3.21,5.77,5.18.8,1.16,1.43,2.34,2.04,3.56.28-.19.49-.43.59-.75.32-1.01-.03-2.21.17-3.24Z"/>
            </g>
          </g>
          <path class="cls-3" d="M113.2,44.44c10.96,12.41,24.57,27.93,33.39,36.97,8.82,9.05,12.86,11.61,16.66,13.07,3.79,1.46,7.35,1.82,10.38,4.82,3.03,2.99,5.54,8.62,4.67,14.8-.89,6.18-5.16,12.91-10.47,16.81-5.32,3.89-11.68,4.94-16.98,5.07-5.29.13-9.52-.66-12.82-2.52-3.3-1.86-5.69-4.8-6.34-8.53-.65-3.73.45-8.26.56-11.69.12-3.42-.74-5.75-6.8-13.72-6.07-7.98-17.34-21.61-28.67-33.83-11.34-12.22-22.73-23.04-31.68-31.56-2.17-2.07-4.2-4.01-6.06-5.81,7.81-5.76,16.21-10.76,25.1-14.88.83.76,1.68,1.55,2.53,2.38,7.23,6.93,15.56,16.22,26.53,28.63Z"/>
          <path class="cls-7" d="M146.99,148.57c3.84,1.16,8.54,2.5,12.77,3.17,4.23.67,7.99.66,11.57,1.59,3.59.93,6.99,2.79,7.93,6.24.92,3.45-.64,8.47-2.39,12.49-1.76,4.02-3.69,7.02-5.11,10.63-1.41,3.6-2.29,7.81-3.91,11.45-1.61,3.64-3.96,6.73-6.5,10.62-2.54,3.89-5.28,8.58-10.63,18.28-5.35,9.7-13.31,24.42-19.93,37-6.14,11.67-11.13,21.52-14.68,27.42-9.87-2-19.36-5.01-28.39-8.91,4.2-7.56,9.47-17.26,15.12-28.44,7.4-14.68,15.45-31.92,20.77-44.75,5.32-12.83,7.91-21.25,8.84-27.48.92-6.23.16-10.26-1.04-13.73-1.21-3.46-2.87-6.35-3.35-8.97-.49-2.62.18-4.98,1.9-6.55,1.73-1.58,4.5-2.37,7.37-2.28,2.87.09,5.84,1.06,9.68,2.22Z"/>
          <path class="cls-13" d="M123.57,158.33c-2.58-.36-5.13,1.65-6.61,5.26-1.48,3.62-1.89,8.84-1.84,12.8.04,3.96.55,6.65-1.83,12.52-2.38,5.87-7.64,14.93-14.75,27.13-7.11,12.19-16.07,27.51-22.96,39.38-2.78,4.79-5.22,9.01-7.42,12.84,3.59,2.25,7.29,4.36,11.09,6.3,17.77-33.65,37.52-80.71,48.65-88.34.85-2.86,1.58-5.79,2.02-8.72.65-4.43.54-8.27-.93-12.51-.59-1.69-1.41-3.43-2.12-5.17-1.1-.76-2.2-1.35-3.3-1.5Z"/>
          <path class="cls-10" d="M171.31,131.37c-.18,1.18-.43,2.35-.74,3.43-1.04,3.66-2.74,6.35-5.06,8.78-1.83,1.92-4.05,3.67-6.92,5.35-3.65-.69-7.33-1.75-10.87-2.82-3.3-1-6.87-2.22-10.34-2.33-3.03-.09-6.36.66-8.76,2.6-1.6-2.33-2.41-4.85-2.5-7.43-.13-3.38.96-6.84,2.51-9.64.34-.62.7-1.2,1.08-1.76,1.22,3.49,3.76,6.27,7.04,8.12,4.27,2.4,9.32,2.97,14.14,2.85,6.55-.16,13.06-1.63,18.42-5.56.68-.49,1.34-1.03,1.98-1.61Z"/>
          <path class="cls-6" d="M176.71,98.91c1.61-.52,3.56-.71,5.43-.34,2.72.54,5.26,2.25,7.47,4.05,2.2,1.8,4.07,3.69,5.31,6.86,1.25,3.16,1.86,7.6,1.26,12.65-.61,5.05-2.43,10.71-4.24,13.75-1.8,3.05-3.58,3.48-5.15,2.39-1.58-1.08-2.96-3.68-4.92-4.92-1.96-1.24-4.5-1.11-6.79-2.25-.71-.35-1.39-.82-2.02-1.42,3.98-4.19,7-9.77,7.78-15.22.47-3.3.11-6.67-.98-9.8-.72-2.04-1.78-4.04-3.14-5.75Z"/>
          <path class="cls-1" d="M163.6,167.96c-3.92.29-6.04-.51-9.73-.97-1.49-.19-2.77-.63-3.91.34-.93.88.78,1.82,1.5,2.33,1.3.86,2.71,1.34,4.21,1.72,6.14,1.48,12.81-1.1,18.4-3.45.08-.36-.23-.48-.53-.51-3.64-.31-6.31.27-9.94.54h0ZM162.89,102.46c.66.68,3.88,3.83,4.23,4.66,1.2,1.95,1.75,3.71,1.78,6.02l-.02.5c-.39,3.8-3.25,6.55-5.68,9.4-.36.42-.73.85-1.07,1.29-.95.94-1.58,1.27-1.55,2.6.04,1.75,2.88.1,3.41-.29,0,0,.06-.02.07-.03,2.24-1.05,4.37-3.25,5.83-5.2,3.26-4.47,3.4-10.07.23-14.67-1.79-2.59-4.61-3.92-7.35-5.07-.36.2-.08.58.11.78Z"/>
        </g>
      </g>
    </g>
  </g>
</svg>