<svg width="60" height="66" viewBox="0 0 60 66" fill="none" xmlns="http://www.w3.org/2000/svg">
<path fill-rule="evenodd" clip-rule="evenodd" d="M44.414 65.5C46.1195 59.8425 53.4341 49.6811 55.6723 42.055L52.3156 39.3169C44.3681 37.6782 36.8171 40.3701 32.1983 42.8114C31.3366 47.1235 32.3893 53.7934 32.7511 64.3696L44.414 65.5ZM56.0072 13.1871C52.9979 9.9211 49.3543 8.7836 49.3543 8.7836L44.4262 7.51331C43.991 10.1118 41.2255 24.8211 33.7944 28.9479C35.2564 29.1012 36.0696 29.6301 36.5109 30.2496C36.6404 30.4317 36.7311 30.616 36.7923 30.7968L56.9707 14.3426C56.661 13.9311 56.338 13.5461 56.0072 13.1871ZM36.8824 31.7619C36.8204 32.2527 36.6249 32.595 36.6249 32.595C36.4469 33.1277 36.0072 33.7937 35.477 34.5952C38.5003 32.7163 42.4775 31.3381 44.0784 30.94L42.5019 29.4295L40.448 29.2289L36.8824 31.7619ZM34.3543 36.3675C33.523 37.7876 32.7381 39.4959 32.5144 41.5005C35.0261 39.6724 42.1466 35.7434 50.0348 36.6478L44.8236 31.6542C41.7612 32.2629 36.4378 35.1795 34.3543 36.3675ZM56.1725 40.5163C57.0525 37.3583 57.9125 34.1915 58.7207 31.0134L44.4755 29.6222L56.1725 40.5163ZM59.4065 28.2141L59.4351 28.0795C60.4721 23.1357 59.7599 19.3639 58.3291 16.5257L42.1048 28.0518L59.4065 28.2141ZM42.5978 7.04206L10.5744 0.56769C0.922358 -0.975047 -2.94489 24.3171 2.67533 29.0573C11.0431 29.8182 25.419 28.989 31.3828 28.9014C37.8714 24.3752 41.2069 13.1749 42.5978 7.04206Z" fill="#0B0E1A"/>
</svg>
